<?xml version="1.0" encoding="UTF-8"?>
<svg width="274px" height="408px" viewBox="0 0 274 408" version="1.1" xmlns="http://www.w3.org/2000/svg" xmlns:xlink="http://www.w3.org/1999/xlink">
    <!-- Generator: Sketch 52.3 (67297) - http://www.bohemiancoding.com/sketch -->
    <title>logoreact-01</title>
    <desc>Created with Sketch.</desc>
    <g id="Page-1" stroke="none" stroke-width="1" fill="none" fill-rule="evenodd">
        <g id="logoreact-01" transform="translate(-114.000000, -40.000000)">
            <g id="OBJECTS" transform="translate(101.000000, 0.000000)">
                <g id="Group">
                    <g transform="translate(13.000000, 41.000000)">
                        <g transform="translate(0.000000, 134.000000)" id="Rectangle">
                            <rect fill="#FFFFFF" x="0" y="0.2" width="273.4" height="235.2"></rect>
                            <rect fill="#212121" x="40.8" y="193.4" width="191.8" height="24.5"></rect>
                            <rect fill="#FFBEAC" x="40.8" y="31.1" width="191.8" height="24.5"></rect>
                            <rect fill="#4EC2AF" x="13" y="212.8" width="247.5" height="59.7"></rect>
                        </g>
                        <g transform="translate(24.000000, 0.000000)">
                            <path d="M33.8,90.4 C72.5,76.2 90.1,59.5 96.1,45.1 C100.9,33.6 112.7,34 112.7,34 C112.7,34 124.5,33.6 129.3,45.1 C135.3,59.6 152.9,76.3 191.6,90.4 C227,103.4 224.8,123.4 224.8,123.4 L112.8,62.5 L0.8,123.4 C0.7,123.3 -1.6,103.3 33.8,90.4 Z" id="Path" fill="#212121"></path>
                            <path d="M18,105.2 L18,122.1 C18,125.4 20.7,128.1 24,128.1 L201.5,128.1 C204.8,128.1 207.5,125.4 207.5,122.1 L207.5,105.2" id="Path" stroke="#212121" stroke-width="2" stroke-linecap="round"></path>
                            <g transform="translate(28.000000, 119.000000)" id="Rectangle">
                                <rect fill="#212121" transform="translate(161.297200, 12.119300) rotate(-180.000000) translate(-161.297200, -12.119300) " x="155.6472" y="0.8193" width="11.3" height="22.6"></rect>
                                <rect fill="#424242" transform="translate(6.063900, 12.119300) rotate(-180.000000) translate(-6.063900, -12.119300) " x="0.4139" y="0.8193" width="11.3" height="22.6"></rect>
                            </g>
                            <path d="M98.4,9.8 L104.9,3.3 C109.1,-0.9 116,-0.9 120.3,3.3 C124.5,7.5 124.5,14.4 120.3,18.7 L113.8,25.2 L113.8,35" id="Path" stroke="#212121" stroke-width="2" stroke-linecap="round"></path>
                            <path d="M33.8,90.4 C72.5,76.2 90.1,59.5 96.1,45.1 C100.9,33.6 112.7,34 112.7,34 C112.7,34 113.1,34 113.7,34 L113.7,63 L112.7,62.4 L0.7,123.3 C0.7,123.3 -1.6,103.3 33.8,90.4 Z" id="Path" fill="#424242"></path>
                        </g>
                    </g>
                </g>
                <text id="React" fill="#000000" font-family="Helvetica" font-size="58.8224" font-weight="normal">
                    <tspan x="73" y="287">React</tspan>
                </text>
                <text id="16.7.0-alpha.2" fill="#4EC2AF" font-family="Helvetica" font-size="30" font-weight="normal">
                    <tspan x="54" y="337">16.7.0-alpha.2</tspan>
                </text>
            </g>
            <g id="Layer_3" transform="translate(177.000000, 388.000000)" fill="#000000" font-family="Helvetica" font-size="50" font-weight="normal">
                <text id="HOOKS">
                    <tspan x="0.7092" y="49.7701">HOOKS</tspan>
                </text>
            </g>
        </g>
    </g>
</svg>