<?xml version="1.0" encoding="UTF-8"?>
<svg width="410px" height="30px" viewBox="0 0 410 30" version="1.1" xmlns="http://www.w3.org/2000/svg" xmlns:xlink="http://www.w3.org/1999/xlink">
    <!-- Generator: Sketch 52.3 (67297) - http://www.bohemiancoding.com/sketch -->
    <title>Reactjs 16.7.0-alpha</title>
    <desc>Created with Sketch.</desc>
    <defs>
        <path d="M517.578125,659.390625 L517.578125,667.5 L522.484375,667.5 C525.1875,667.5 526.734375,666.015625 526.734375,663.4375 C526.734375,660.921875 525.09375,659.390625 522.390625,659.390625 L517.578125,659.390625 Z M517.578125,670.328125 L517.578125,679 L514.078125,679 L514.078125,656.453125 L522.8125,656.453125 C527.453125,656.453125 530.34375,659.140625 530.34375,663.34375 C530.34375,666.390625 528.71875,668.859375 525.96875,669.78125 L531.015625,679 L526.984375,679 L522.390625,670.328125 L517.578125,670.328125 Z M540.125,664.984375 C537.765625,664.984375 536.109375,666.78125 535.9375,669.265625 L544.15625,669.265625 C544.078125,666.75 542.484375,664.984375 540.125,664.984375 Z M544.140625,674.171875 L547.34375,674.171875 C546.875,677.171875 544.03125,679.3125 540.265625,679.3125 C535.4375,679.3125 532.515625,676.046875 532.515625,670.859375 C532.515625,665.703125 535.484375,662.265625 540.125,662.265625 C544.6875,662.265625 547.53125,665.484375 547.53125,670.46875 L547.53125,671.625 L535.921875,671.625 L535.921875,671.828125 C535.921875,674.6875 537.640625,676.578125 540.34375,676.578125 C542.265625,676.578125 543.6875,675.609375 544.140625,674.171875 Z M555.890625,676.609375 C558.25,676.609375 560.09375,674.984375 560.09375,672.84375 L560.09375,671.546875 L556.046875,671.796875 C554.03125,671.9375 552.890625,672.828125 552.890625,674.234375 C552.890625,675.671875 554.078125,676.609375 555.890625,676.609375 Z M554.953125,679.28125 C551.734375,679.28125 549.484375,677.28125 549.484375,674.328125 C549.484375,671.453125 551.6875,669.6875 555.59375,669.46875 L560.09375,669.203125 L560.09375,667.9375 C560.09375,666.109375 558.859375,665.015625 556.796875,665.015625 C554.84375,665.015625 553.625,665.953125 553.328125,667.421875 L550.140625,667.421875 C550.328125,664.453125 552.859375,662.265625 556.921875,662.265625 C560.90625,662.265625 563.453125,664.375 563.453125,667.671875 L563.453125,679 L560.21875,679 L560.21875,676.296875 L560.140625,676.296875 C559.1875,678.125 557.109375,679.28125 554.953125,679.28125 Z M580.828125,668.21875 L577.609375,668.21875 C577.265625,666.46875 575.953125,665.078125 573.75,665.078125 C571.140625,665.078125 569.421875,667.25 569.421875,670.78125 C569.421875,674.390625 571.15625,676.484375 573.78125,676.484375 C575.859375,676.484375 577.21875,675.34375 577.609375,673.4375 L580.859375,673.4375 C580.5,676.9375 577.703125,679.3125 573.75,679.3125 C569.046875,679.3125 565.984375,676.09375 565.984375,670.78125 C565.984375,665.5625 569.046875,662.265625 573.71875,662.265625 C577.953125,662.265625 580.53125,664.984375 580.828125,668.21875 Z M584.234375,658.671875 L587.625,658.671875 L587.625,662.5625 L590.75,662.5625 L590.75,665.234375 L587.625,665.234375 L587.625,674.296875 C587.625,675.71875 588.25,676.359375 589.625,676.359375 C589.96875,676.359375 590.515625,676.328125 590.734375,676.28125 L590.734375,678.953125 C590.359375,679.046875 589.609375,679.109375 588.859375,679.109375 C585.53125,679.109375 584.234375,677.84375 584.234375,674.671875 L584.234375,665.234375 L581.84375,665.234375 L581.84375,662.5625 L584.234375,662.5625 L584.234375,658.671875 Z M597,662.5625 L597,679.78125 C597,683.125 595.265625,684.71875 591.625,684.71875 C591.46875,684.71875 590.9375,684.71875 590.84375,684.6875 L590.84375,682.03125 C590.90625,682.03125 591.265625,682.046875 591.328125,682.046875 C593,682.046875 593.625,681.421875 593.625,679.765625 L593.625,662.5625 L597,662.5625 Z M595.296875,659.90625 C594.21875,659.90625 593.34375,659.03125 593.34375,657.96875 C593.34375,656.890625 594.21875,656.03125 595.296875,656.03125 C596.375,656.03125 597.234375,656.890625 597.234375,657.96875 C597.234375,659.03125 596.375,659.90625 595.296875,659.90625 Z M600.15625,667.21875 C600.15625,664.28125 602.71875,662.265625 606.5,662.265625 C610.328125,662.265625 612.8125,664.390625 612.921875,667.421875 L609.75,667.421875 C609.5625,665.828125 608.390625,664.828125 606.5,664.828125 C604.671875,664.828125 603.453125,665.71875 603.453125,667.03125 C603.453125,668.0625 604.203125,668.765625 605.984375,669.171875 L608.65625,669.78125 C612.015625,670.5625 613.296875,671.875 613.296875,674.25 C613.296875,677.25 610.5,679.3125 606.625,679.3125 C602.515625,679.3125 600.046875,677.296875 599.734375,674.171875 L603.078125,674.171875 C603.390625,675.890625 604.5625,676.734375 606.625,676.734375 C608.65625,676.734375 609.90625,675.890625 609.90625,674.546875 C609.90625,673.484375 609.296875,672.859375 607.5,672.453125 L604.828125,671.828125 C601.703125,671.109375 600.15625,669.609375 600.15625,667.21875 Z M628.171875,679 L628.171875,659.921875 L628.09375,659.921875 L622.203125,663.984375 L622.203125,660.671875 L628.140625,656.453125 L631.59375,656.453125 L631.59375,679 L628.171875,679 Z M645.5625,679.4375 C640.96875,679.4375 636.703125,676.203125 636.703125,668.03125 C636.703125,660.484375 640.046875,656.015625 645.6875,656.015625 C649.71875,656.015625 652.828125,658.375 653.5,661.921875 L649.984375,661.921875 C649.375,660.046875 647.8125,658.953125 645.65625,658.953125 C642.078125,658.953125 640.109375,662.234375 640.0625,667.84375 L640.125,667.84375 C641.03125,665.796875 643.3125,664.203125 646.375,664.203125 C650.6875,664.203125 653.796875,667.359375 653.796875,671.625 C653.796875,676.15625 650.328125,679.4375 645.5625,679.4375 Z M645.515625,676.484375 C648.1875,676.484375 650.3125,674.390625 650.3125,671.75 C650.3125,669.015625 648.328125,667.046875 645.5625,667.046875 C642.796875,667.046875 640.75,669 640.75,671.671875 C640.75,674.359375 642.84375,676.484375 645.515625,676.484375 Z M659.09375,679.171875 C657.953125,679.171875 657.046875,678.265625 657.046875,677.125 C657.046875,675.984375 657.953125,675.078125 659.09375,675.078125 C660.234375,675.078125 661.140625,675.984375 661.140625,677.125 C661.140625,678.265625 660.234375,679.171875 659.09375,679.171875 Z M665.265625,679 L675.28125,659.484375 L675.28125,659.40625 L663.390625,659.40625 L663.390625,656.453125 L678.734375,656.453125 L678.734375,659.484375 L668.9375,679 L665.265625,679 Z M680.859375,679.171875 C679.71875,679.171875 678.8125,678.265625 678.8125,677.125 C678.8125,675.984375 679.71875,675.078125 680.859375,675.078125 C682,675.078125 682.90625,675.984375 682.90625,677.125 C682.90625,678.265625 682,679.171875 680.859375,679.171875 Z M694.890625,679.421875 C689.453125,679.421875 686.25,674.890625 686.25,667.703125 C686.25,660.5625 689.5,656.03125 694.890625,656.03125 C700.28125,656.03125 703.5,660.546875 703.5,667.6875 C703.5,674.875 700.3125,679.421875 694.890625,679.421875 Z M694.890625,676.484375 C698.140625,676.484375 699.96875,673.171875 699.96875,667.703125 C699.96875,662.3125 698.109375,658.96875 694.890625,658.96875 C691.671875,658.96875 689.796875,662.328125 689.796875,667.703125 C689.796875,673.15625 691.625,676.484375 694.890625,676.484375 Z M716.921875,671.375 L706.671875,671.375 L706.671875,668.328125 L716.921875,668.328125 L716.921875,671.375 Z M726.15625,676.609375 C728.515625,676.609375 730.359375,674.984375 730.359375,672.84375 L730.359375,671.546875 L726.3125,671.796875 C724.296875,671.9375 723.15625,672.828125 723.15625,674.234375 C723.15625,675.671875 724.34375,676.609375 726.15625,676.609375 Z M725.21875,679.28125 C722,679.28125 719.75,677.28125 719.75,674.328125 C719.75,671.453125 721.953125,669.6875 725.859375,669.46875 L730.359375,669.203125 L730.359375,667.9375 C730.359375,666.109375 729.125,665.015625 727.0625,665.015625 C725.109375,665.015625 723.890625,665.953125 723.59375,667.421875 L720.40625,667.421875 C720.59375,664.453125 723.125,662.265625 727.1875,662.265625 C731.171875,662.265625 733.71875,664.375 733.71875,667.671875 L733.71875,679 L730.484375,679 L730.484375,676.296875 L730.40625,676.296875 C729.453125,678.125 727.375,679.28125 725.21875,679.28125 Z M737.109375,679 L737.109375,656.453125 L740.484375,656.453125 L740.484375,679 L737.109375,679 Z M752.515625,662.296875 C756.6875,662.296875 759.4375,665.578125 759.4375,670.78125 C759.4375,675.984375 756.703125,679.28125 752.578125,679.28125 C750.21875,679.28125 748.34375,678.125 747.40625,676.296875 L747.328125,676.296875 L747.328125,684.4375 L743.953125,684.4375 L743.953125,662.5625 L747.21875,662.5625 L747.21875,665.390625 L747.28125,665.390625 C748.25,663.5 750.140625,662.296875 752.515625,662.296875 Z M751.625,676.421875 C754.296875,676.421875 755.96875,674.234375 755.96875,670.78125 C755.96875,667.34375 754.296875,665.140625 751.625,665.140625 C749.046875,665.140625 747.3125,667.390625 747.3125,670.78125 C747.3125,674.203125 749.03125,676.421875 751.625,676.421875 Z M762.15625,679 L762.15625,656.453125 L765.5,656.453125 L765.5,665.3125 L765.578125,665.3125 C766.484375,663.390625 768.28125,662.28125 770.78125,662.28125 C774.390625,662.28125 776.546875,664.6875 776.546875,668.40625 L776.546875,679 L773.15625,679 L773.15625,669.0625 C773.15625,666.640625 771.9375,665.1875 769.5625,665.1875 C767.0625,665.1875 765.53125,666.90625 765.53125,669.5 L765.53125,679 L762.15625,679 Z M785.546875,676.609375 C787.90625,676.609375 789.75,674.984375 789.75,672.84375 L789.75,671.546875 L785.703125,671.796875 C783.6875,671.9375 782.546875,672.828125 782.546875,674.234375 C782.546875,675.671875 783.734375,676.609375 785.546875,676.609375 Z M784.609375,679.28125 C781.390625,679.28125 779.140625,677.28125 779.140625,674.328125 C779.140625,671.453125 781.34375,669.6875 785.25,669.46875 L789.75,669.203125 L789.75,667.9375 C789.75,666.109375 788.515625,665.015625 786.453125,665.015625 C784.5,665.015625 783.28125,665.953125 782.984375,667.421875 L779.796875,667.421875 C779.984375,664.453125 782.515625,662.265625 786.578125,662.265625 C790.5625,662.265625 793.109375,664.375 793.109375,667.671875 L793.109375,679 L789.875,679 L789.875,676.296875 L789.796875,676.296875 C788.84375,678.125 786.765625,679.28125 784.609375,679.28125 Z M798.90625,679.171875 C797.765625,679.171875 796.859375,678.265625 796.859375,677.125 C796.859375,675.984375 797.765625,675.078125 798.90625,675.078125 C800.046875,675.078125 800.953125,675.984375 800.953125,677.125 C800.953125,678.265625 800.046875,679.171875 798.90625,679.171875 Z M804.671875,663.09375 C804.671875,659 807.984375,656.03125 812.515625,656.03125 C816.9375,656.03125 819.921875,658.859375 819.921875,662.40625 C819.921875,665 818.703125,666.796875 814.671875,670.828125 L809.546875,675.96875 L809.546875,676.046875 L820.28125,676.046875 L820.28125,679 L804.859375,679 L804.859375,676.59375 L812.8125,668.578125 C815.78125,665.546875 816.46875,664.390625 816.46875,662.625 C816.46875,660.546875 814.90625,658.921875 812.515625,658.921875 C809.9375,658.921875 807.984375,660.6875 807.984375,663.09375 L804.671875,663.09375 Z M855.265625,679 L851.765625,679 L851.765625,669.015625 L840.1875,669.015625 L840.1875,679 L836.6875,679 L836.6875,656.453125 L840.1875,656.453125 L840.1875,665.984375 L851.765625,665.984375 L851.765625,656.453125 L855.265625,656.453125 L855.265625,679 Z M866.0625,679.3125 C861.359375,679.3125 858.265625,676.078125 858.265625,670.78125 C858.265625,665.5 861.375,662.265625 866.0625,662.265625 C870.75,662.265625 873.859375,665.5 873.859375,670.78125 C873.859375,676.078125 870.765625,679.3125 866.0625,679.3125 Z M866.0625,676.53125 C868.71875,676.53125 870.421875,674.4375 870.421875,670.78125 C870.421875,667.140625 868.703125,665.046875 866.0625,665.046875 C863.421875,665.046875 861.703125,667.140625 861.703125,670.78125 C861.703125,674.4375 863.421875,676.53125 866.0625,676.53125 Z M883.53125,679.3125 C878.828125,679.3125 875.734375,676.078125 875.734375,670.78125 C875.734375,665.5 878.84375,662.265625 883.53125,662.265625 C888.21875,662.265625 891.328125,665.5 891.328125,670.78125 C891.328125,676.078125 888.234375,679.3125 883.53125,679.3125 Z M883.53125,676.53125 C886.1875,676.53125 887.890625,674.4375 887.890625,670.78125 C887.890625,667.140625 886.171875,665.046875 883.53125,665.046875 C880.890625,665.046875 879.171875,667.140625 879.171875,670.78125 C879.171875,674.4375 880.890625,676.53125 883.53125,676.53125 Z M897.46875,669.609375 L904.109375,662.5625 L908.078125,662.5625 L901.265625,669.640625 L908.34375,679 L904.421875,679 L898.84375,671.703125 L897.4375,673.09375 L897.4375,679 L894.0625,679 L894.0625,656.453125 L897.4375,656.453125 L897.4375,669.609375 L897.46875,669.609375 Z M909.265625,667.21875 C909.265625,664.28125 911.828125,662.265625 915.609375,662.265625 C919.4375,662.265625 921.921875,664.390625 922.03125,667.421875 L918.859375,667.421875 C918.671875,665.828125 917.5,664.828125 915.609375,664.828125 C913.78125,664.828125 912.5625,665.71875 912.5625,667.03125 C912.5625,668.0625 913.3125,668.765625 915.09375,669.171875 L917.765625,669.78125 C921.125,670.5625 922.40625,671.875 922.40625,674.25 C922.40625,677.25 919.609375,679.3125 915.734375,679.3125 C911.625,679.3125 909.15625,677.296875 908.84375,674.171875 L912.1875,674.171875 C912.5,675.890625 913.671875,676.734375 915.734375,676.734375 C917.765625,676.734375 919.015625,675.890625 919.015625,674.546875 C919.015625,673.484375 918.40625,672.859375 916.609375,672.453125 L913.9375,671.828125 C910.8125,671.109375 909.265625,669.609375 909.265625,667.21875 Z" id="path-1"></path>
    </defs>
    <g id="Page-1" stroke="none" stroke-width="1" fill="none" fill-rule="evenodd">
        <g id="Color-palette" transform="translate(-513.000000, -655.000000)">
            <g id="Reactjs-16.7.0-alpha">
                <use fill="#1028F6" xlink:href="#path-1"></use>
                <use fill="#FFFFFF" xlink:href="#path-1"></use>
            </g>
        </g>
    </g>
</svg>